<svg width="1024" height="500" xmlns="http://www.w3.org/2000/svg">
  <path fill="#f2f0ea" d="M0 0h1024v500H0z"/>
  <path stroke="null" fill="#c84697" d="M447.7 330.5L413.3 318a101 100 0 0 1-60-59l-12.7-33.8a3.2 3.2 0 0 0-6.2 0L321.7 259a100.3 100.3 0 0 1-60.1 59l-34.4 12.5a3.2 3.2 0 0 0 0 6l34.4 12.4a101 100 0 0 1 60 59.1l12.8 33.8a3.2 3.2 0 0 0 6.2 0l12.6-33.8a101.7 101.7 0 0 1 60.1-59.1l34.4-12.4a3.2 3.2 0 0 0 0-6zm29.6-170.9l-10.2-3.8a30.1 30.3 0 0 1-18-18l-3.7-10.2a1 1 0 0 0-1.8 0l-3.9 10.3c-3 8.3-9.5 14.8-17.9 17.9l-10.2 3.8a1 1 0 0 0 0 1.8l10.2 3.8a30.1 30.3 0 0 1 18 18l3.8 10.2a1 1 0 0 0 1.8 0l3.8-10.3c3-8.3 9.6-14.8 17.9-18l10.2-3.7a1 1 0 0 0 0-1.8zm236.2-68.2l-6.9-2.5a20.2 20 0 0 1-12-11.8l-2.5-6.7a.6.6 0 0 0-1.3 0l-2.5 6.7a20 20 0 0 1-12 11.8l-7 2.5a.6.6 0 0 0 0 1.2l7 2.5a20.2 20 0 0 1 12 11.8l2.5 6.7a.6.6 0 0 0 1.3 0l2.5-6.7a20 20 0 0 1 12-11.8l7-2.5a.6.6 0 0 0 0-1.2zm-146 244l-7-2.5a20.7 20 0 0 1-12.3-11.8l-2.6-6.7a.7.6 0 0 0-1.3 0l-2.6 6.7a20 20 0 0 1-12.3 11.8l-7 2.5a.7.6 0 0 0 0 1.2l7 2.5a20.7 20 0 0 1 12.3 11.8l2.6 6.7a.7.6 0 0 0 1.3 0l2.6-6.7a20 20 0 0 1 12.3-11.8l7-2.5a.7.6 0 0 0 0-1.2zm-9.4-96l-12.6-4.5a37.3 35.8 0 0 1-22.2-21l-4.7-12.2a1.2 1.1 0 0 0-2.3 0l-4.7 12.1a36.5 36.5 0 0 1-22.2 21.1l-12.6 4.5a1.2 1.1 0 0 0 0 2.2l12.6 4.4a37.3 35.8 0 0 1 22.2 21.2l4.7 12a1.2 1.1 0 0 0 2.3 0l4.7-12a37 37 0 0 1 22.2-21.2l12.6-4.4a1.2 1.1 0 0 0 0-2.2zm70.2-88.8l-10.2-3.8a30.1 30.3 0 0 1-18-18l-3.7-10.2a1 1 0 0 0-1.8 0l-3.9 10.3c-3 8.3-9.5 14.8-17.9 17.9l-10.2 3.8a1 1 0 0 0 0 1.8l10.2 3.8a30.1 30.3 0 0 1 18 18l3.8 10.2a1 1 0 0 0 1.8 0l3.8-10.3c3-8.3 9.6-14.8 17.9-18l10.2-3.7a1 1 0 0 0 0-1.8zm170.4-71l-4.6-1.9a13.5 14.5 0 0 1-8-8.5l-1.7-5a.4.5 0 0 0-.9 0l-1.7 5a14 14 0 0 1-8 8.5l-4.6 1.9a.4.5 0 0 0 0 .8l4.6 1.8a13.5 14.5 0 0 1 8 8.6l1.7 5a.4.5 0 0 0 .9 0l1.7-5c1.3-4 4.3-7 8-8.6l4.6-1.8a.4.5 0 0 0 0-.8zm-58.1 91l-4.7-1.9a14 14.5 0 0 1-8.3-8.5l-1.7-5a.4.5 0 0 0-.9 0l-1.7 5c-1.4 4-4.5 7-8.3 8.5l-4.7 1.9a.4.5 0 0 0 0 .8l4.7 1.8a14 14.5 0 0 1 8.3 8.6l1.7 5a.4.5 0 0 0 .9 0l1.7-5c1.5-4 4.5-7 8.3-8.6l4.7-1.8a.4.5 0 0 0 0-.8zm-54.3 81l-10.2-3.8a30.1 30.3 0 0 1-18-18l-3.7-10.2a1 1 0 0 0-1.8 0l-3.9 10.3c-3 8.3-9.5 14.8-17.9 17.9l-10.2 3.8a1 1 0 0 0 0 1.8l10.2 3.8a30.1 30.3 0 0 1 18 18l3.8 10.2a1 1 0 0 0 1.8 0l3.8-10.3c3-8.3 9.6-14.8 17.9-18l10.2-3.7a1 1 0 0 0 0-1.8zM867.7 38.2l-3.2-1.2a9.4 9.5 0 0 1-5.6-5.6l-1.2-3.2a.3.3 0 0 0-.5 0l-1.2 3.2c-1 2.6-3 4.6-5.6 5.6l-3.2 1.2a.3.3 0 0 0 0 .6l3.2 1.2a9.4 9.5 0 0 1 5.6 5.6l1.2 3.2a.3.3 0 0 0 .5 0l1.2-3.2c1-2.6 3-4.7 5.6-5.6l3.2-1.2a.3.3 0 0 0 0-.6z"/>
</svg>
