<svg xmlns="http://www.w3.org/2000/svg" width="180" height="120" viewBox="0 0 180 180">
  <rect fill="#ffffff" x="-45" y="0" width="270" height="180"/>
  <rect fill="#f2f0ea" x="-40" y="0" width="260" height="180" rx="25" ry="25"/>
  <path d="M161.5 87.5l-22.3-8.2a65.6 65.6 0 0 1-39-38.7L92 18.4a2.1 2.1 0 0 0-4 0l-8.3 22.2c-6.6 18-20.9 32-39 38.7l-22.3 8.2a2.1 2.1 0 0 0 0 4l22.3 8.1a65.6 65.6 0 0 1 39 38.8l8.3 22.2a2.1 2.1 0 0 0 4 0l8.2-22.2c6.7-18 21-32.1 39-38.8l22.3-8.1a2.1 2.1 0 0 0 0-4z" fill="#c84697" stroke="null"/>
</svg>