<svg version="1" xmlns="http://www.w3.org/2000/svg" viewBox="0 0 180 180">
  <path fill="#cb5800" d="M53.4 2.4a59 59 0 0 0-.8 7.9l-.1 5.2 6.8.9c4.1.6 7.1.6 7.7 0 .5-.5 1.3-3.6 1.9-6.9 1.2-7.6.5-8.4-8.2-9.2-6.5-.6-6.6-.5-7.3 2.1zM28.2 9.2c-.5.7-1.7 4-2.6 7.2-1.4 4.9-1.5 6.1-.4 7.1A46 46 0 0 0 38.9 28 47 47 0 0 0 44 13.2c0-.6-3-2-6.6-3.2-7.8-2.4-7.9-2.4-9.2-.8zm62.3 14.5c-13.3 3-25.5 7.6-25.5 9.6a476 476 0 0 0 16 35.1c.5.5 2.7-.1 5.2-1.2a36.8 36.8 0 0 1 43.1 7.4 38.2 38.2 0 0 1-11.3 61.8c-5.8 2.8-7.5 3.1-15.5 3.1-8.2 0-9.7-.3-15.7-3.3a41.3 41.3 0 0 1-18.4-18.6 16.2 16.2 0 0 0-2.5-4.6c-.6 0-35 16-35.8 16.6-.7.6 5.2 12 9.3 17.8a81 81 0 0 0 39.1 29.2 87.2 87.2 0 0 0 42.5 1.5 78.5 78.5 0 0 0 55.6-51.6 96 96 0 0 0 1.9-42.1 77.7 77.7 0 0 0-59.4-59.9c-6.7-1.4-23.9-1.9-28.6-.8z"/>
  <path d="M40.1 37c-9.5 4.6-9.6 4.9-4.7 15.6 4.1 8.8 4.8 9 15.4 3.9 5.9-2.8 7.2-3.8 7.2-5.7 0-3.2-6.4-16.4-8.3-17.1-.9-.3-5.2 1.2-9.6 3.3zM6.3 46.6C1.9 50.5 0 52.9 0 54.5 0 57.7 10.5 69 13.4 69c1.3 0 4.6-2.5 8.5-6.4 6.2-6.2 6.4-6.6 4.9-8.8A47 47 0 0 0 14.2 41c-1 0-4.5 2.6-7.9 5.6zM39 69.7c-12.9 6.2-15 7.7-15 10.8 0 1.2 2.9 8.3 6.5 15.8 5.1 10.9 6.9 13.8 8.8 14.3 3.6.8 29.3-11.6 30.8-14.9.9-2.1.3-4.2-5.1-15.8-3.4-7.4-6.7-14-7.2-14.7-1.9-2.3-7.3-1-18.8 4.5z"/>
</svg>