<svg xmlns="http://www.w3.org/2000/svg" viewBox="0 0 20 20">
  <path d="M13 12.6l-2.65-2.65a.5.5 0 0 0-.7 0L7 12.59 4.35 9.95a.5.5 0 0 0-.7 0l-2.5 2.5a.5.5 0 0 0-.15.35v1.4c0 .45.54.67.85.36L4 12.4l2.65 2.65c.2.2.5.2.7 0L10 12.4l2.65 2.65c.2.2.5.2.7 0L16 12.4l2.15 2.15c.31.31.85.1.85-.35v-1.4a.5.5 0 0 0-.15-.35l-2.5-2.5a.5.5 0 0 0-.7 0L13 12.59zm3.35-8.65l2.5 2.5c.1.09.15.22.15.35v1.4a.5.5 0 0 1-.85.36L16 6.4l-2.65 2.65a.5.5 0 0 1-.7 0L10 6.4 7.35 9.06a.5.5 0 0 1-.7 0L4 6.4 1.85 8.56A.5.5 0 0 1 1 8.2V6.8a.5.5 0 0 1 .15-.35l2.5-2.5c.2-.2.5-.2.7 0L7 6.59l2.65-2.64c.2-.2.5-.2.7 0L13 6.59l2.65-2.64c.2-.2.5-.2.7 0z" fill-rule="evenodd"/>
</svg>