<svg xmlns="http://www.w3.org/2000/svg" viewBox="0 0 20 20">
  <path d="M14.02 9h3.48c.28 0 .5.22.5.5v1a.5.5 0 0 1-.5.5h-3.48c.12 2.2.63 4.37 1.54 6.28a.5.5 0 0 1-.44.72h-1.1a.5.5 0 0 1-.46-.3c-.9-2.07-1.4-4.37-1.51-6.7h-4.1a19.36 19.36 0 0 1-1.5 6.7.5.5 0 0 1-.47.3h-1.1a.5.5 0 0 1-.44-.72c.9-1.91 1.42-4.08 1.54-6.28H2.5a.5.5 0 0 1-.5-.5v-1c0-.28.22-.5.5-.5h3.48c-.12-2.2-.63-4.37-1.54-6.28A.5.5 0 0 1 4.88 2h1.1c.2 0 .38.12.46.3A19.2 19.2 0 0 1 7.95 9h4.1c.11-2.33.61-4.63 1.5-6.7a.5.5 0 0 1 .47-.3h1.1c.37 0 .6.38.44.72A16.93 16.93 0 0 0 14.02 9" fill-rule="evenodd"/>
</svg>