<svg xmlns="http://www.w3.org/2000/svg" viewBox="0 0 20 20">
  <path d="M14 9a2 2 0 0 1-2-2 2 2 0 0 1 2.49-1.94A2 2 0 0 1 14 9m-4-2a4.02 4.02 0 0 0 5.44 3.75 3.96 3.96 0 0 0 2.55-4.05l-.03-.22c-.21-1.33-1.22-2.49-2.74-3.29A11.22 11.22 0 0 0 10.07 2H10c-2.82 0-5.52.9-7.8 2.58-.12.1-.2.25-.2.4v1.3c0 .41.49.65.81.38a11.14 11.14 0 0 1 8.47-2.59A3.97 3.97 0 0 0 10 7m-4 4a2 2 0 0 1 2 2 2 2 0 0 1-2.49 1.94A2 2 0 0 1 6 11m4 2c0-2.65-2.57-4.7-5.36-3.78A3.95 3.95 0 0 0 2 13v.1l.01.2.03.22c.21 1.33 1.22 2.49 2.74 3.29 1.4.74 3.18 1.18 5.15 1.19H10c2.82 0 5.52-.9 7.8-2.57.12-.1.2-.26.2-.42v-1.28a.5.5 0 0 0-.81-.39 11.14 11.14 0 0 1-8.47 2.59A3.97 3.97 0 0 0 10 13" fill-rule="evenodd"/>
</svg>