<svg xmlns="http://www.w3.org/2000/svg" viewBox="0 0 20 20">
  <path d="M15 14v-4a1 1 0 0 1 2 0c0 1.75-.76 3.32-1.95 4.42A1.98 1.98 0 0 1 15 14m3.95-3.14c.16-1.46-.46-2.94-1.78-3.58a2.7 2.7 0 0 0-2.17-.1v-1c0-2-1.4-3.83-3.4-4.13A3.96 3.96 0 0 0 8 3.38a3.96 3.96 0 0 0-3.6-1.33A4.13 4.13 0 0 0 1 6.18v7.32c0 .28.21.5.5.5h1a.5.5 0 0 0 .5-.5V6.1c0-1 .68-1.92 1.66-2.08A2 2 0 0 1 7 6v7.5c0 .28.21.5.5.5h1a.5.5 0 0 0 .5-.5V6.1c0-1 .68-1.92 1.66-2.08A2 2 0 0 1 13 6v8c0 .54.11 1.06.3 1.54-.56.24-1.18.39-1.82.44a.5.5 0 0 0-.48.5v1c0 .28.24.52.52.5a7.97 7.97 0 0 0 3.04-.83 4 4 0 0 0 1.85.8.5.5 0 0 0 .59-.5v-1a.51.51 0 0 0-.41-.5 2.66 2.66 0 0 1-.2-.05 8 8 0 0 0 2.56-5.04" fill-rule="evenodd"/>
</svg>