<svg xmlns="http://www.w3.org/2000/svg" viewBox="0 0 20 20">
  <path d="M19.644 17.356a.505.505 0 0 0 0-.712l-2.288-2.288c-.197-.197-.356-.142-.356.149V16c-1.103 0-2-.897-2-2V6c0-2.206-1.794-4-4-4-1.2 0-2.266.542-3 1.382A3.975 3.975 0 0 0 5 2C2.794 2 1 3.794 1 6v7.5c0 .276.214.5.505.5h.99A.507.507 0 0 0 3 13.5V6c0-1.103.897-2 2-2s2 .897 2 2v7.5c0 .276.214.5.505.5h.99A.507.507 0 0 0 9 13.5V6c0-1.103.897-2 2-2s2 .897 2 2v8c0 2.206 1.794 4 4 4v1.495c0 .279.161.344.356.149l2.288-2.288z" fill-rule="evenodd"/>
</svg>