<svg xmlns="http://www.w3.org/2000/svg" width="32.4" height="32.4" viewBox="0 0 32.4 32.4">
  <path d="M22.4 20.86s-2.27-.52-2.52-1.3c-.24-.77.43-1.77.97-1.5s.73 1.38 1.73 1.77 3.34-2.87 3.6-3.7l.37-1.3s8.33-5.45 0-13.62C25.9.7 20.2-2.1 16 3.4c-.48.77-4.67 8.64 1.7 10.46 7.4 2.1 8.32-8.12 4-6.8 1.26 1.65 1 4.3-1.96 3.18-2.03-1.26.22-4.07.22-4.07s1.3-2.2 3.75-1.06c1.5.65 5.2 6.04-1.4 9.63-10.7 3.2-10-6.84-10-6.84s-1.3-2-2.6-1.07c1.07.93 2 2.2.6 2.16-1.96-.78-7.15 1.6-8.13 2.53 3.4.8 10.88 14.33 11.56 20.9.7-.04 1.2-7.52-.4-10.8-.73-1.08-3.93-3.23-.92-6.86.6.08-2.84 2.6 2.98 5.6-.57 1.13-1.3 5.08.6 6.2 1.95 1.12 3.63-5.1 6.5-5.68"/>
</svg>
