<svg xmlns="http://www.w3.org/2000/svg" width="24.44" height="24.44" viewBox="0 0 24.44 24.44">
  <path d="M23.5 15.5c1.13-1.38 2.7-11-5.12-14.26C10.58-2 6.82 2.87 6.88 4.87c-2.63.93-3.2 3.87-3.2 3.87S-.1 10.62 0 12.87s2.88 2.37 2.88 2.37l.83 1.15.2-1.2S8 13.3 8.2 15c.17 1.65-3.6 2.23-3.6 2.23l-.8-.56.24 1.05s-.84.26-.46 1.07c.75 1.2 3.25-.5 3.25-.5S4.9 25.6 10.45 24c-3.44-1.75-.3-4.44-.3-4.44s.68 7 7.5 2.75c-5.4.6-4.16-2.1-3.57-2.7l3.56-3.7s1.56 2.35-2.25 5.2c5 1.34 5.2-7.8 5.2-7.8s1.2 4.4-1.98 7.33c7.1-1.56 3.54-10.5 3.54-10.5s1.32.44 1.25 5.38zm-18.8-7c-.13-.46.2-.82.57-.88s1.67.32 2.05.52c.38.2-2.5.8-2.63.35z"/>
</svg>
