<svg xmlns="http://www.w3.org/2000/svg" width="32" height="32" viewBox="0 0 32 32">
  <path d="M26.6 9.34C25.5 5.4 23.96-.14 15.8 0c-1.54.5 4.4 1.07 3.9 3C17 1.45 15.4.4 13.46.57c-1.92.18-2.75 1.88-2.68 3.1 1.56.83 3.56 7.27 4.2 8.63.65 1.36 1.78 3.44 2.93 4.07C19.1 17 16.3 21 14 21.1c-2.34.1-8.23 2.65-8.94 5.98 1.43-1.68 7.08-4.64 9.52-4.55 2.43.1 4.76-2.7 5.15-3.5.1 3.6-3.46 5-5.97 5.06-3.62 0-9.06 3.5-8.4 5.6.66-1.8 5.2-4 8.2-4.1 3.02-.2 5.8-1.7 7.25-3-.7 2.8-3.3 3.8-6.3 4.34s-9 2.2-8.9 4.96c1.2-1.72 6.56-3.35 12.3-3.73 5.8-.38 10.6-12.06 8.8-18.94zm-6.75-7.68s4.74 2.64 2.4 6.9c.5-4.17-2.4-6.9-2.4-6.9zm3.3 2.96s5.17 7.1-.9 10.6c3.75-4.75.9-10.6.9-10.6z"/>
  <path d="M8.33 13.85c.05.4-.23.96-.3 1.25-.06.3-.47.2-.4.6.04.43.55.6.55.6s-.4.22-.37.54c.1.54 1.1.08 1.2.3.1.2.1.04 0 .47s-.8.6-.4 1.7c.6 1.5 7.2.6 8.8-2.3-5.63-5-5.75-12.5-6.9-12.3-1.1.17-2.1 4.85-2.12 5.9-.02 1.1-1.16 1.8-1.3 2.6-.14.88 1.05.5 1.33.76zm.32-3.87c.07-.2 1.66.3 1.66.53 0 .3-1.1.3-1.4.3-.1 0-.4-.1-.2-.72z"/>
</svg>
