<svg xmlns="http://www.w3.org/2000/svg" width="32" height="32" viewBox="0 0 32 32">
  <path d="M32 23.07L27.23 11.4h2.13V9.77s-4.86-.26-8.3-1.53c-2.8-1.04-4.17-3.14-5.03-3.18-.97-.05-2.8 2-6.03 3.18C6.77 9.4 2.13 9.76 2.13 9.76v1.65H4.6L0 22.7s-.5 3.92 5.05 3.92c5.56 0 5.7-3.9 5.7-3.9L6.13 11.4h7.2c.62.64 1.48 1.05 2.44 1.05s1.82-.4 2.43-1.06H26l-4.74 11.66s-.2 3.88 5.35 3.88c5.58 0 5.4-3.88 5.4-3.88zM.9 22.7l4.18-10.47V22.7H.88zm4.75 0V12.24l4.2 10.48h-4.2zm10.12-12.54c-.56 0-1-.45-1-1 0-.57.44-1.03 1-1.03s1.02.45 1.02 1.02c-.03.56-.48 1-1.04 1zm11.13 2.42l4.2 10.5h-4.2v-10.5zm-4.76 10.5l4.2-10.5v10.5h-4.2z"/>
</svg>
