<svg xmlns="http://www.w3.org/2000/svg" width="32.01" height="32.02" viewBox="0 0 32.01 32.02">
  <path d="M26.22 19.17c-.6.35-1.87.2-2.54.08-.68-2.23-3.1-4.38-6.35-5.37-2.8-.85-5.57-.64-7.44.38-.8-.73-2.3-1.65-4.6-.65.9-.5 2.3-2.8-.8-3.9C6.1 9.1 7 7 5.9 5.2c.83-.1 1.2-1.28 1.2-1.28S9.26 6.9 12.04 5C9.4 4.5 9.16 3.87 9.16 3.87s3.66-1.3 10.6-.86c-5.62-6.6-13 0-13 0s-2.2-1-2.1 1.6c-.56-.1-3.8 1.8-1.8 5.2-1.9.5-1.4 4.9.4 4.8-.3 2.6 3.1 3.7 4.34 3.9.1.7.35 1.3.72 1.9l-.28.1c-1.9.4-4.2 2.1-4.76 4.8-.04.2.1.4.3.5.22.08.43-.05.47-.3.5-2.34 2.5-3.8 4.15-4.2.22 0 .42-.03.62-.03.38.5.84.96 1.37 1.4-1.4.26-3.3 1.15-4.5 4.7-.1.2 0 .4.2.5H6c.15 0 .3-.1.36-.3 1.24-3.9 3.44-4.2 4.6-4.24.9.6 1.9 1.08 3 1.4.44.15.87.25 1.3.3-.86 1.35-1.1 3.6-.5 5.5.06.2.27.35.5.3.2-.1.3-.3.24-.5-.54-1.8-.3-4.06.6-5.1l.06-.04c.67.1 1.3.1 1.9.1l.2.4c.87 1.8.7 5.15.15 6.02-.1.2 0 .4.1.54l.2.06c.2 0 .3-.08.4-.2.7-1.1.8-4.84-.1-6.77l-.1-.17.5-.06c.7.92 2.2 2.7 3.6 2.62 1.57 2.8 4 1.9 4.2 1.3-1-.56-1.56-1.7-1.56-1.7s.95-1.5 2.37-1.24c-.2-1.2-2.66-2.18-4.6.8-.92.4-2.3-1-3.13-2.03 1.7-.52 2.9-1.55 3.38-2.97.2-.53.2-1.05.17-1.6l2.2.06c-.34 3.5 2.2 4.3 3.08 3.45-1.2-.7-1-2.4-1-2.4s1.15-.6 2.3-.4c.2-.6-1.15-2.8-4.1-1.6z"/>
</svg>
