<svg xmlns="http://www.w3.org/2000/svg" width="30.4" height="30.4" viewBox="0 0 30.4 30.4">
  <path d="M30.4 19.65s-2.18-4.98-3.93-7.9c.13-1.55.23-4.76-1.1-6.1-.5-.5-1.15-.7-1.9-.6-1.22.15-2.13.63-2.7 1.42-.35.5-.5 1.03-.54 1.47-1.55-.34-2.77-.44-2.77-.44s-.08-3.42-.54-3.63c-.24-.1-2 1.56-3.54 3.25-.43.47-.85.94-1.2 1.38-.44.4-1 .84-1.76 1.32-4.95 4.88-5.78 11.3-6.37 12.96C3.45 24.44 0 26.5 0 26.5l3.5.03s3.13-6.34 3.83-9.36c.55 1.48-3.2 9.34-3.2 9.34s2.04.08 2.24 0c.2-.05 2.7-8.63 2.64-11.2.7 2.36-1.43 11.25-1.43 11.25h3.73c-1.92-1.5-1.04-4.13-1.25-8.5-.14-2.9.87-5.74 1.57-7.35 1.13.15 3.4-.3 3.4-.3s-.15 1.2.04 2.72c-.46-.03-1.34 0-2.14.58-.78.56-1.26 1.47-1.43 2.7-.1.74.1 1.4.6 1.88.95.96 2.86 1.18 4.44 1.18 1.07 0 1.98-.1 2.34-.14 3.33 1.98 8.6 3.62 8.6 3.62l2.9-3.3zm-17.6-2.08c-.28-.27-.38-.6-.32-1.04.13-.94.47-1.62 1.02-2 .75-.56 1.68-.4 1.7-.4v-.1c.3 1.47.96 3.1 2.3 4.3.05.03.1.06.13.1-1.63.1-3.95 0-4.83-.86zm12.08-7.75c-1.02-.76-2.4-1.28-3.68-1.63.03-.35.12-.78.4-1.16.4-.55 1.07-.9 2.02-1.02.43-.06.76.04 1.03.3.75.76.9 2.58.88 4.1-.2-.23-.43-.45-.65-.6z"/>
</svg>
