<svg xmlns="http://www.w3.org/2000/svg" width="32" height="32" viewBox="0 0 32 32">
  <path d="M15.15 14.7s.16.33.3.36c1.05.25 5.74 1.32 7.1.47.7-.47-1.93-2.73-1.93-2.73s3.12 1.44 3.65.9c1.92-3.1-3.04-8.2-4.3-9.4-.32-.36-.56-.1-.56-.1l-5.8 4.1 1.64 6.4zm5.45-5.78c.5 0 .93.42.93.93 0 .52-.42.94-.93.94-.52 0-.94-.5-.94-1s.42-.96.94-.96z"/>
  <path d="M13.64 14.44c.64.04.46-.68.46-.68l-1.5-5.9 6.32-4.12s.42-.28.02-.53C17.94 2.4 15 0 14 0c-1.2.1-.9 3.26-1.77 3.07-9 .43-12.2 15.98-11.8 16.5.43.5.77.86 1.54.28.8 1.7-1.03 5.58-1.64 7.16-.16.5.25.4.52.2 1.4-1.4 2.38-1.9 2.94-1.82.5.07 1.8.55 2.5.97.36.26.77.2.4-.35-5.8-12.26 4.14-11.76 6.9-11.48z"/>
  <path d="M16.85 17.28s-.16-.3-.3-.35c-1.05-.24-5.74-1.3-7.1-.47-.7.48 1.93 2.73 1.93 2.73s-3.12-1.5-3.65-1c-1.93 3.1 3.04 8.2 4.3 9.42.33.34.56.1.56.1l5.9-4.1-1.7-6.43zm-5.45 5.8c-.5 0-.93-.42-.93-.94s.42-.93.93-.93c.52 0 .94.5.94 1s-.42.96-.94.96z"/>
  <path d="M31.15 4.87c-1.4 1.4-2.38 1.88-2.94 1.83-.5-.06-1.8-.55-2.5-.96-.36-.27-.77-.2-.4.35 5.83 12.2-4.12 11.7-6.86 11.4-.65-.06-.46.7-.46.7l1.5 5.9-6.3 4.1s-.43.3-.03.52c1 .84 3.94 3.28 4.93 3.2 1.2-.1.9-3.26 1.77-3.07 9-.44 12.2-16 11.8-16.5-.46-.5-.8-.87-1.58-.3-.78-1.7 1.04-5.57 1.65-7.16.16-.48-.25-.35-.52-.1z"/>
</svg>
