<svg xmlns="http://www.w3.org/2000/svg" width="32" height="32" viewBox="0 0 32 32">
  <path d="M25.05 0c1.3 7.96-1.5 7.64-1.5 7.64l-7.5-.28h-.1l-7.5.28s-2.8.32-1.5-7.64c-9.2 13 2.95 11.03 3.13 11.5.18.46-1.84 3.2-1.7 4.82.15 1.62 2.98 2.5 3.36 3.57 1.24 3.6-2.7 7.2.97 8.1l.5.1v.62c0 1.74 1.43 3.17 3.18 3.17s3.18-1.44 3.18-3.18c0-.28-.03-.55-.1-.8 3.6-.93-.3-4.5.93-8.15.36-1.1 3.2-1.95 3.34-3.58s-1.87-4.37-1.7-4.83c.2-.45 12.33 1.5 3.14-11.5zm-8.8 31.14c-1.26 0-2.3-1.04-2.3-2.3 0-.2.03-.36.07-.52.85.12 1.63.2 1.92.2v.02h.12c.35-.03 1.4-.12 2.42-.3.05.18.1.38.1.6 0 1.26-1.05 2.3-2.32 2.3z"/>
</svg>
