<svg xmlns="http://www.w3.org/2000/svg" width="32" height="32" viewBox="0 0 32 32">
  <path d="M28.56 2.6c-2.92-4.98-6.7-1.47-7.44-.4-.74 1.07-1.2 4.03-1.2 4.03s1.73.5 1.76.85c.03.36-1.96.77-1.96.77s-.03.3-.26.83c-.28.7-3 2.07-3.13 2.9-.18 1.2 1.55.94 1.56 1.5l-.1 1.04c-.1.04-.6.46-.5.83 0 .42.5.56.5.56s-.6.6-.4.9c.1.3.8.3 1 .4s.1.8-.1 1c-.2.2-.9.66-.58 1.7.37 1 .74 1.37 4.6.9 1.4 3.75-2.96 5.23-4.53 5.77-.7.24-1.43 1.46-1.9 2.73-.48-1.3-1.2-2.5-1.9-2.76-1.57-.53-5.95-2-4.55-5.77 3.9.46 4.24.1 4.6-.9.36-1.05-.33-1.5-.54-1.7-.23-.2-.2-.84-.07-.96.12-.1.85-.05 1-.34.13-.3-.43-.87-.43-.87s.48-.14.5-.56c.1-.4-.4-.8-.5-.85v-1.1c0-.57 1.76-.3 1.58-1.5-.1-.84-2.84-2.2-3.13-2.9-.2-.54-.24-.84-.24-.84s-2-.4-1.94-.77c.02-.4 1.75-.9 1.75-.9s-.47-3-1.2-4.08c-.75-1.07-4.5-4.58-7.45.4C-.45 9.3-.2 13.5 1.15 19.5c.3 1.17 1.04 3.24 1.54 4.36.7-.9 3.1-2.76 5.3-15.76-.5 12.2-5.1 16.2-4.9 16.4 2.3 3.8 6.4 7.03 12.8 7.44h.2c6.4-.45 10.52-3.7 12.8-7.5.14-.23-4.44-4.2-4.88-16.43 2.12 13 4.52 14.9 5.3 15.8.5-1.1 1.24-3.2 1.5-4.32 1.4-6 1.66-10.23-2.3-16.95z"/>
</svg>
