<svg xmlns="http://www.w3.org/2000/svg" width="32" height="32" viewBox="0 0 32 32">
  <path d="M25.52 21.95c.56-.04 5.7-.18 6.28-2.96.05-.25-.08-.8-.37-.46-3.48 2.1-6.62-.84-6.62-.84s5.54-5.1 4.67-9.9C28.6 3.03 21.2-1.2 19 .33c3.36 1.83 5.27 6.27 5.27 6.27s-2.57.44-5.28-2c-1 5.45 5.55 5.8 6.66 5.96.74.1-1.55 4.25-2.36 5.05-.1.1-.13.2-.15.3-.96-.54-3.94-2.12-7.16-2.12-3.2 0-6.2 1.58-7.18 2.14-.02-.1-.06-.2-.16-.3-.8-.8-3.1-4.94-2.36-5.04 1.1-.15 7.67-.5 6.7-5.97-2.7 2.45-5.3 2-5.3 2S9.66 2.15 13.04.3C10.84-1.23 3.44 3 2.56 7.8c-.87 4.8 4.64 9.9 4.64 9.9s-3.15 2.93-6.63.84c-.3-.36-.42.2-.37.43.6 2.77 5.72 2.9 6.28 2.95.6.05 1.48.97 1.17 1.38-.3.38-5.15.32-7.14-.5-.1-.05-.43-.06-.13.33 1.24 1.7 7.7 1.77 7.66 2-.04.25-4.3 4.37-2.03 6.7.14.13.57.3.65-.15 1.12-3.65 3.15-5.97 4.03-6.07.8-.1 5.27.25 5.34.25h.13c.93-.08 4.42-.32 5.22-.23.87.1 2.9 2.43 4.02 6.1.06.45.5.3.64.14 2.27-2.3-1.98-6.44-2.03-6.68-.04-.24 6.43-.3 7.67-2 .3-.4-.03-.4-.16-.33-2 .8-6.85.87-7.14.5-.3-.42.58-1.34 1.17-1.4z"/>
</svg>
