<svg xmlns="http://www.w3.org/2000/svg" width="32" height="32" viewBox="0 0 32 32">
  <path d="M30 15.67l-4.3-1.4v1.07h-4.93c.3-1.67 1.86-1.55 1.73-5.04-.14-3.85-6.55-3.98-6.32-10.3l-.1.14.03-.14L4.58 14.44 2 14.17l1.27 1.74-1.24 1.74 2.77-.38L16.18 32l.05-1.18c.55-5.17 6.14-5.53 6.27-9.12.14-3.85-1.78-3.3-1.78-5.6V16h5v1.53l4.3-1.86zM15 2.97c-.1 3.43 5.07 4.8 5.07 7.33 0 2.8-1.08 3-1.33 5.04H7.72l-.92-.66-1.26-.13L15 2.95zm3.7 13.1c.08 2.63 1.38 2.58 1.38 5.63 0 2.57-5.32 3.93-5.08 7.47L5.73 17.12l1.1-.15L8 16h10.68v.07z"/>
</svg>
